<?xml version="1.0" encoding="utf-8"?>
<!-- Generator: Adobe Illustrator 24.0.1, SVG Export Plug-In . SVG Version: 6.00 Build 0)  -->
<svg version="1.1" id="Layer_1" xmlns="http://www.w3.org/2000/svg" xmlns:xlink="http://www.w3.org/1999/xlink" x="0px" y="0px"
	 viewBox="0 0 22 22" style="enable-background:new 0 0 22 22;" xml:space="preserve">
<style type="text/css">
	.st0{fill:#6E90BA;}
	.st1{fill:#D8003C;}
</style>
<g>
	<path class="st0" d="M10.9,11.8c1.3-0.9,2.2-2.3,2.2-4c0-2.7-2.2-4.8-4.8-4.8C5.6,3,3.4,5.2,3.4,7.8c0,1.7,0.9,3.1,2.2,4
		c-2.9,1.1-5,3.9-5,7.2h1.3c0-3.5,2.9-6.4,6.4-6.4c3.5,0,6.4,2.9,6.4,6.4h1.3C15.9,15.7,13.8,12.9,10.9,11.8z M8.2,11.4
		c-1.9,0-3.5-1.6-3.5-3.5s1.6-3.5,3.5-3.5s3.5,1.6,3.5,3.5S10.2,11.4,8.2,11.4z"/>
</g>
<path class="st1" d="M15.8,11.7c0.2-0.1,0.5-0.2,0.7-0.3c1-0.4,2-0.9,2.8-1c0.5-0.1,0.7-0.4,0.7-0.6c0.1-0.5-0.3-0.8-0.7-1.1
	c-0.4-0.3-1.2-0.8-1.2-1.3c-0.2-3-2.4-5.1-5.1-5.1c-0.9,0-1.8,0.3-2.5,0.7c0.4,0.2,0.8,0.4,1.1,0.7c0.4-0.1,0.8-0.1,1.4-0.1
	c2,0,3.6,1.6,3.8,3.8c0.1,0.8,0.6,1.4,1.1,1.9c-0.6,0.2-1.3,0.5-1.9,0.8c-1.1,0.5-2.3,1-3,1c-0.2,0-0.4-0.1-0.7-0.1
	c0,0.1,0,0.1-0.1,0.2c1,0.3,1.7,0.9,2.3,1.5c3,0.7,5.3,3.4,5.3,6.7h1.4C21.2,15.9,18.9,12.9,15.8,11.7z"/>
</svg>
