<?xml version="1.0" encoding="utf-8"?>
<!-- Generator: Adobe Illustrator 24.0.1, SVG Export Plug-In . SVG Version: 6.00 Build 0)  -->
<svg version="1.1" id="Layer_1" xmlns="http://www.w3.org/2000/svg" xmlns:xlink="http://www.w3.org/1999/xlink" x="0px" y="0px"
	 viewBox="0 0 22 22" style="enable-background:new 0 0 22 22;" xml:space="preserve">
<style type="text/css">
	.st0{fill:#0A0000;}
	.st1{opacity:0.2;fill:url(#SVGID_1_);enable-background:new    ;}
</style>
<path class="st0" d="M19.5,6.5c0,1.4-0.6,2.6-1.4,3.6c-2,2.1-4,4.1-6,6.3c-0.9,0.9-1.6,1-2.4,0c-2-2.1-4.3-4.3-6.1-6.6
	C0.6,6.9,2,2.7,5.7,1.9c1.3-0.3,2.6,0,3.4,0.9c1,1,1.7,1,2.9,0c1.4-1.1,3.1-1.3,4.9-0.4C18.5,3.2,19.3,4.7,19.5,6.5z"/>
<radialGradient id="SVGID_1_" cx="10.7" cy="-8460.6846" r="8.4118" gradientTransform="matrix(1 0 0 -0.1155 0 -957.1795)" gradientUnits="userSpaceOnUse">
	<stop  offset="0" style="stop-color:#000100"/>
	<stop  offset="1" style="stop-color:#000100;stop-opacity:0"/>
</radialGradient>
<ellipse class="st1" cx="10.7" cy="20" rx="8.5" ry="0.9"/>
</svg>
